<?xml version="1.0" encoding="UTF-8"?>
<svg id="Capa_1" data-name="Capa 1" xmlns="http://www.w3.org/2000/svg" viewBox="0 0 727.68 385.36">
  <defs>
    <style>
      .cls-1 {
        fill: #fff;
      }

      .cls-2 {
        fill: #2b8590;
      }

      .cls-3 {
        fill: #6ec2bd;
      }
    </style>
  </defs>
  <polygon class="cls-2" points="32.97 39.55 407.37 39.55 407.37 159.34 500.63 159.34 500.63 230.08 32.97 230.08 32.97 39.55"/>
  <polygon class="cls-3" points="421.86 39.55 661.49 39.55 661.49 230.08 514.61 230.08 514.61 144.19 421.86 144.19 421.86 39.55"/>
  <g>
    <path class="cls-2" d="M33.82,265.41h9.2v10.42h10.06v-10.42h9.24v29.78h-9.24v-12.05h-10.06v12.05h-9.2v-29.78Z"/>
    <path class="cls-2" d="M86.74,290.28h-10.45l-1.45,4.92h-9.4l11.19-29.78h10.04l11.19,29.78h-9.64l-1.49-4.92ZM84.83,283.84l-3.29-10.7-3.25,10.7h6.54Z"/>
    <path class="cls-2" d="M101.16,265.41h9.22v29.78h-9.22v-29.78Z"/>
    <path class="cls-2" d="M117.11,295.19v-29.78h15.34c2.84,0,5.02.24,6.52.73,1.5.49,2.71,1.39,3.64,2.71.92,1.32,1.38,2.93,1.38,4.82,0,1.65-.35,3.08-1.06,4.28-.7,1.2-1.67,2.17-2.91,2.92-.79.47-1.86.87-3.23,1.18,1.1.37,1.89.73,2.39,1.1.34.24.83.76,1.47,1.57.64.8,1.07,1.42,1.29,1.85l4.46,8.63h-10.4l-4.92-9.1c-.62-1.18-1.18-1.94-1.67-2.29-.66-.46-1.41-.69-2.25-.69h-.81v12.09h-9.24ZM126.35,277.48h3.88c.42,0,1.23-.14,2.44-.41.61-.12,1.11-.43,1.49-.93.38-.5.58-1.08.58-1.73,0-.96-.3-1.7-.91-2.21-.61-.51-1.75-.77-3.43-.77h-4.04v6.05Z"/>
    <path class="cls-2" d="M163.34,295.19v-29.78h15.34c2.84,0,5.02.24,6.52.73,1.5.49,2.71,1.39,3.64,2.71.92,1.32,1.38,2.93,1.38,4.82,0,1.65-.35,3.08-1.06,4.28-.7,1.2-1.67,2.17-2.91,2.92-.79.47-1.86.87-3.23,1.18,1.1.37,1.89.73,2.39,1.1.34.24.83.76,1.47,1.57.64.8,1.07,1.42,1.29,1.85l4.46,8.63h-10.4l-4.92-9.1c-.62-1.18-1.18-1.94-1.67-2.29-.66-.46-1.41-.69-2.25-.69h-.81v12.09h-9.24ZM172.59,277.48h3.88c.42,0,1.23-.14,2.44-.41.61-.12,1.11-.43,1.49-.93.38-.5.58-1.08.58-1.73,0-.96-.3-1.7-.91-2.21s-1.75-.77-3.43-.77h-4.04v6.05Z"/>
    <path class="cls-2" d="M195.56,265.41h24.66v6.36h-15.44v4.73h14.32v6.08h-14.32v5.87h15.89v6.74h-25.11v-29.78Z"/>
    <path class="cls-2" d="M224.02,285.34l8.76-.55c.19,1.42.58,2.5,1.16,3.25.95,1.2,2.3,1.81,4.06,1.81,1.31,0,2.33-.31,3.04-.92.71-.62,1.07-1.33,1.07-2.14s-.34-1.46-1.02-2.07c-.68-.61-2.25-1.19-4.71-1.73-4.04-.91-6.91-2.11-8.63-3.62-1.73-1.5-2.6-3.42-2.6-5.75,0-1.53.44-2.98,1.33-4.34.89-1.36,2.22-2.43,4-3.21,1.78-.78,4.22-1.17,7.32-1.17,3.81,0,6.71.71,8.71,2.12,2,1.41,3.19,3.67,3.56,6.75l-8.67.51c-.23-1.34-.71-2.32-1.45-2.93-.74-.61-1.76-.92-3.06-.92-1.07,0-1.88.23-2.42.68s-.81,1-.81,1.65c0,.48.22.9.67,1.28.43.39,1.46.76,3.09,1.1,4.02.87,6.9,1.74,8.64,2.63,1.74.89,3.01,1.99,3.8,3.3.79,1.31,1.19,2.78,1.19,4.41,0,1.91-.53,3.67-1.58,5.28-1.06,1.61-2.53,2.83-4.43,3.67-1.9.83-4.29,1.25-7.17,1.25-5.07,0-8.57-.98-10.52-2.93s-3.05-4.43-3.31-7.43Z"/>
    <path class="cls-2" d="M253.58,265.41h27.97v7.35h-9.39v22.43h-9.2v-22.43h-9.39v-7.35Z"/>
    <path class="cls-2" d="M283.14,280.32c0-4.86,1.35-8.65,4.06-11.36,2.71-2.71,6.48-4.06,11.32-4.06s8.78,1.33,11.46,3.99c2.68,2.66,4.02,6.39,4.02,11.18,0,3.48-.59,6.34-1.76,8.56-1.17,2.23-2.87,3.96-5.08,5.2-2.22,1.24-4.97,1.86-8.28,1.86s-6.14-.53-8.34-1.6c-2.2-1.07-3.99-2.76-5.35-5.08-1.37-2.32-2.05-5.21-2.05-8.69ZM292.34,280.36c0,3.01.56,5.17,1.68,6.48,1.12,1.31,2.64,1.97,4.56,1.97s3.51-.64,4.59-1.93c1.08-1.29,1.63-3.6,1.63-6.93,0-2.8-.57-4.85-1.7-6.14-1.13-1.29-2.66-1.94-4.6-1.94s-3.34.66-4.47,1.97c-1.12,1.31-1.69,3.49-1.69,6.52Z"/>
    <path class="cls-2" d="M319.07,295.19v-29.78h15.34c2.84,0,5.02.24,6.52.73,1.5.49,2.71,1.39,3.64,2.71.92,1.32,1.38,2.93,1.38,4.82,0,1.65-.35,3.08-1.06,4.28-.7,1.2-1.67,2.17-2.91,2.92-.79.47-1.86.87-3.23,1.18,1.1.37,1.89.73,2.39,1.1.34.24.83.76,1.47,1.57.64.8,1.07,1.42,1.29,1.85l4.46,8.63h-10.4l-4.92-9.1c-.62-1.18-1.18-1.94-1.67-2.29-.66-.46-1.41-.69-2.25-.69h-.81v12.09h-9.24ZM328.32,277.48h3.88c.42,0,1.23-.14,2.44-.41.61-.12,1.11-.43,1.49-.93.38-.5.58-1.08.58-1.73,0-.96-.3-1.7-.91-2.21s-1.75-.77-3.43-.77h-4.04v6.05Z"/>
    <path class="cls-2" d="M369.62,290.28h-10.45l-1.45,4.92h-9.4l11.19-29.78h10.04l11.19,29.78h-9.64l-1.49-4.92ZM367.71,283.84l-3.29-10.7-3.25,10.7h6.54Z"/>
    <path class="cls-2" d="M378.72,265.41h27.97v7.35h-9.39v22.43h-9.2v-22.43h-9.38v-7.35Z"/>
    <path class="cls-2" d="M411.22,265.41h9.22v29.78h-9.22v-29.78Z"/>
    <path class="cls-2" d="M425.88,280.32c0-4.86,1.36-8.65,4.06-11.36,2.71-2.71,6.48-4.06,11.32-4.06s8.78,1.33,11.46,3.99c2.68,2.66,4.02,6.39,4.02,11.18,0,3.48-.59,6.34-1.76,8.56-1.17,2.23-2.87,3.96-5.08,5.2-2.22,1.24-4.97,1.86-8.28,1.86s-6.14-.53-8.34-1.6c-2.2-1.07-3.99-2.76-5.35-5.08-1.37-2.32-2.05-5.21-2.05-8.69ZM435.09,280.36c0,3.01.56,5.17,1.68,6.48,1.12,1.31,2.64,1.97,4.56,1.97s3.51-.64,4.59-1.93c1.08-1.29,1.63-3.6,1.63-6.93,0-2.8-.57-4.85-1.7-6.14-1.13-1.29-2.66-1.94-4.6-1.94s-3.34.66-4.47,1.97c-1.12,1.31-1.68,3.49-1.68,6.52Z"/>
    <path class="cls-2" d="M461.76,265.41h8.59l11.21,16.48v-16.48h8.68v29.78h-8.68l-11.15-16.35v16.35h-8.66v-29.78Z"/>
    <path class="cls-2" d="M530.06,283l8.07,2.44c-.54,2.26-1.4,4.15-2.56,5.67-1.16,1.52-2.61,2.66-4.34,3.43-1.73.77-3.92,1.16-6.59,1.16-3.24,0-5.88-.47-7.93-1.41-2.05-.94-3.82-2.6-5.31-4.96-1.49-2.37-2.24-5.4-2.24-9.09,0-4.93,1.31-8.71,3.93-11.36,2.62-2.65,6.33-3.97,11.12-3.97,3.75,0,6.7.76,8.85,2.28,2.15,1.52,3.74,3.85,4.78,6.99l-8.13,1.81c-.28-.91-.58-1.57-.89-1.99-.51-.71-1.14-1.25-1.89-1.63-.75-.38-1.58-.57-2.5-.57-2.08,0-3.68.84-4.79,2.52-.84,1.25-1.26,3.2-1.26,5.86,0,3.3.5,5.56,1.5,6.79,1,1.22,2.41,1.84,4.23,1.84s3.09-.49,3.99-1.48c.9-.99,1.55-2.42,1.96-4.31Z"/>
    <path class="cls-2" d="M542.59,265.41h9.2v22.45h14.36v7.33h-23.56v-29.78Z"/>
    <path class="cls-2" d="M570.71,265.41h9.22v29.78h-9.22v-29.78Z"/>
    <path class="cls-2" d="M586.59,265.41h8.59l11.21,16.48v-16.48h8.68v29.78h-8.68l-11.15-16.35v16.35h-8.66v-29.78Z"/>
    <path class="cls-2" d="M621.55,265.41h9.22v29.78h-9.22v-29.78Z"/>
    <path class="cls-2" d="M657.2,283l8.07,2.44c-.54,2.26-1.4,4.15-2.56,5.67-1.16,1.52-2.61,2.66-4.34,3.43-1.73.77-3.92,1.16-6.59,1.16-3.24,0-5.88-.47-7.93-1.41-2.05-.94-3.82-2.6-5.31-4.96-1.49-2.37-2.24-5.4-2.24-9.09,0-4.93,1.31-8.71,3.93-11.36,2.62-2.65,6.33-3.97,11.12-3.97,3.75,0,6.7.76,8.85,2.28,2.15,1.52,3.74,3.85,4.78,6.99l-8.13,1.81c-.28-.91-.58-1.57-.89-1.99-.51-.71-1.14-1.25-1.89-1.63-.75-.38-1.58-.57-2.5-.57-2.08,0-3.68.84-4.79,2.52-.84,1.25-1.26,3.2-1.26,5.86,0,3.3.5,5.56,1.5,6.79,1,1.22,2.41,1.84,4.23,1.84s3.09-.49,3.99-1.48c.9-.99,1.55-2.42,1.96-4.31Z"/>
  </g>
  <path class="cls-1" d="M63.98,73.25h58.05c11.44,0,20.69,1.45,27.73,4.36,7.04,2.91,12.87,7.08,17.47,12.51,4.6,5.44,7.94,11.76,10.01,18.97,2.07,7.21,3.11,14.85,3.11,22.92,0,12.65-1.54,22.45-4.61,29.42-3.08,6.97-7.35,12.81-12.81,17.52-5.46,4.71-11.33,7.84-17.6,9.4-8.57,2.15-16.33,3.23-23.29,3.23h-58.05v-118.33ZM103.89,103.38v58.59h8.74c8.17,0,13.27-.95,16.72-2.64,3.45-1.7,6.15-4.65,8.11-8.88,1.95-4.22,2.97-8.56,2.97-18.03,0-12.54-2.83-19.01-7.2-23.64-4.37-4.63-10.31-5.4-20.43-5.4h-8.91Z"/>
  <g>
    <path class="cls-2" d="M256.72,333.16l5.8,1.85c-.9,3.33-2.41,5.77-4.51,7.3-2.11,1.54-4.7,2.3-7.77,2.3-3.86,0-7-1.22-9.4-3.68-2.76-2.83-4.14-6.65-4.14-11.46,0-5.08,1.39-9.05,4.17-11.93,2.42-2.49,5.67-3.74,9.75-3.74,3.32,0,6.11.94,8.34,2.81,1.6,1.33,2.77,3.3,3.51,5.91l-5.92,1.42c-.38-1.61-1.13-2.85-2.26-3.71-1.13-.86-2.46-1.29-3.99-1.29-2.19,0-3.98.79-5.36,2.36-1.38,1.57-2.08,4.17-2.08,7.78s.67,6.42,2.02,8.01c1.35,1.58,3.1,2.38,5.25,2.38,1.58,0,2.94-.5,4.1-1.51,1.15-1.01,1.98-2.61,2.49-4.81Z"/>
    <path class="cls-2" d="M266.42,329.41c0-3.55.64-6.47,1.91-8.77,1.27-2.29,2.94-4.01,4.99-5.13,2.06-1.12,4.55-1.69,7.47-1.69,4.24,0,7.7,1.34,10.37,4,2.67,2.67,4.01,6.47,4.01,11.4s-1.41,8.88-4.24,11.68c-2.48,2.48-5.85,3.72-10.11,3.72s-7.68-1.22-10.16-3.68c-2.83-2.8-4.24-6.65-4.24-11.54ZM272.58,329.2c0,3.43.79,6,2.37,7.71,1.58,1.71,3.54,2.57,5.88,2.57s4.31-.85,5.86-2.55c1.55-1.7,2.32-4.31,2.32-7.83s-.75-6.01-2.26-7.66c-1.51-1.65-3.48-2.48-5.92-2.48s-4.42.83-5.95,2.5c-1.53,1.67-2.3,4.25-2.3,7.74Z"/>
    <path class="cls-2" d="M300.04,344.11v-29.54h5.97v24.5h14.9v5.04h-20.87Z"/>
    <path class="cls-2" d="M323.96,329.41c0-3.55.64-6.47,1.91-8.77,1.27-2.29,2.94-4.01,4.99-5.13,2.06-1.12,4.55-1.69,7.47-1.69,4.24,0,7.7,1.34,10.37,4,2.67,2.67,4.01,6.47,4.01,11.4s-1.41,8.88-4.24,11.68c-2.48,2.48-5.85,3.72-10.11,3.72s-7.68-1.22-10.16-3.68c-2.83-2.8-4.24-6.65-4.24-11.54ZM330.13,329.2c0,3.43.79,6,2.37,7.71,1.58,1.71,3.54,2.57,5.88,2.57s4.31-.85,5.86-2.55c1.55-1.7,2.32-4.31,2.32-7.83s-.75-6.01-2.26-7.66c-1.51-1.65-3.48-2.48-5.92-2.48s-4.42.83-5.95,2.5c-1.53,1.67-2.3,4.25-2.3,7.74Z"/>
    <path class="cls-2" d="M357.33,344.11v-29.78h8.95l5.39,20.34,5.35-20.34h9v29.78h-5.58v-23.46l-5.91,23.46h-5.76l-5.87-23.46v23.46h-5.58Z"/>
    <path class="cls-2" d="M391.92,314.33h11.88c3.24,0,5.52.24,6.84.73,1.32.49,2.43,1.35,3.33,2.58.91,1.23,1.36,2.63,1.36,4.19,0,1.43-.39,2.73-1.16,3.89-.78,1.16-1.79,2.01-3.02,2.57,1.76.52,3.13,1.4,4.13,2.64.99,1.25,1.49,2.76,1.49,4.55,0,2.17-.63,4-1.9,5.49-1.27,1.5-2.76,2.42-4.49,2.77-1.2.24-3.99.37-8.36.37h-10.09v-29.78ZM397.89,319.29v6.89h3.95c2.37,0,3.83-.03,4.39-.1,1.02-.14,1.82-.49,2.39-1.07.58-.58.87-1.36.87-2.35,0-.88-.23-1.59-.7-2.14-.47-.55-1.04-.89-1.7-1.03-.66-.14-2.58-.2-5.73-.2h-3.45ZM397.89,331.13v7.94h5.56c2.44,0,4-.11,4.69-.31.69-.21,1.27-.62,1.74-1.24.47-.61.71-1.39.71-2.34s-.25-1.77-.75-2.4c-.5-.63-1.17-1.06-2-1.3-.83-.24-2.53-.36-5.1-.36h-4.84Z"/>
    <path class="cls-2" d="M421.64,344.11v-29.78h5.97v29.78h-5.97Z"/>
    <path class="cls-2" d="M460.1,344.11h-6.49l-2.6-6.74h-11.87l-2.45,6.74h-6.36l11.55-29.78h6.34l11.89,29.78ZM449.08,332.33l-4.09-11.05-4.02,11.05h8.11Z"/>
  </g>
  <rect class="cls-2" x="32.97" y="328.43" width="175.4" height="2.45"/>
  <rect class="cls-2" x="486.88" y="328.43" width="175.4" height="2.45"/>
  <path class="cls-1" d="M204.88,73.25h35.2v40.47h32.47v-40.47h35.49v118.27h-35.72v-45.2h-32.01v45.2h-35.43v-118.27Z"/>
  <path class="cls-1" d="M337.7,73.53h35.99v117.99h-35.99v-117.99Z"/>
</svg>