<?xml version="1.0" encoding="UTF-8"?>
<svg id="Capa_1" data-name="Capa 1" xmlns="http://www.w3.org/2000/svg" viewBox="0 0 183.69 743.3">
  <defs>
    <style>
      .cls-1 {
        fill: #2a405e;
      }

      .cls-2 {
        letter-spacing: 0em;
      }

      .cls-3 {
        fill: #fff;
      }

      .cls-4 {
        fill: #60b5b3;
      }

      .cls-5 {
        fill: #2b8590;
      }

      .cls-6 {
        font-family: MyriadPro-Regular, 'Myriad Pro';
        font-size: 26.76px;
      }

      .cls-7 {
        letter-spacing: -.01em;
      }

      .cls-8 {
        letter-spacing: 0em;
      }

      .cls-9 {
        letter-spacing: -.01em;
      }

      .cls-10 {
        fill: #1d5e65;
      }

      .cls-11 {
        fill: #6ec2bd;
      }
    </style>
  </defs>
  <rect class="cls-1" x="53.04" y="624.37" width="80.42" height="80.42"/>
  <rect class="cls-5" x="53.04" y="65.69" width="80.42" height="80.42"/>
  <rect class="cls-11" x="53.04" y="156.73" width="80.42" height="80.42"/>
  <rect class="cls-10" x="53.04" y="351.35" width="80.42" height="80.42" transform="translate(-298.31 484.81) rotate(-90)"/>
  <path class="cls-3" d="M85.14,86.47h6.6v28.38h9.62v6.29h-16.22v-34.67Z"/>
  <rect class="cls-4" x="51.58" y="440.94" width="83.34" height="83.34" transform="translate(-389.36 575.86) rotate(-90)"/>
  <path class="cls-3" d="M85.14,177.51h6.6v28.38h9.62v6.29h-16.22v-34.67Z"/>
  <text class="cls-6" transform="translate(23.38 48.63)"><tspan class="cls-9" x="0" y="0">C</tspan><tspan x="15.23" y="0">olo</tspan><tspan class="cls-8" x="50.93" y="0">r</tspan><tspan x="59.41" y="0">es logo</tspan></text>
  <text class="cls-6" transform="translate(24.02 298.97)"><tspan class="cls-9" x="0" y="0">C</tspan><tspan x="15.23" y="0">olo</tspan><tspan class="cls-8" x="50.93" y="0">r</tspan><tspan x="59.41" y="0">es </tspan><tspan class="cls-7" x="89.09" y="0">f</tspan><tspan x="96.55" y="0">eed </tspan><tspan x="17.34" y="32.11">y diseños</tspan></text>
  <text class="cls-6" transform="translate(23.89 574.37)"><tspan class="cls-9" x="0" y="0">C</tspan><tspan x="15.23" y="0">olo</tspan><tspan class="cls-8" x="50.93" y="0">r</tspan><tspan x="59.41" y="0">es pa</tspan><tspan class="cls-2" x="117.21" y="0">r</tspan><tspan x="125.83" y="0">a </tspan><tspan class="cls-8" x="28.26" y="32.11">r</tspan><tspan x="36.74" y="32.11">esaltar</tspan></text>
</svg>