<?xml version="1.0" standalone="no"?>
<!DOCTYPE svg PUBLIC "-//W3C//DTD SVG 20010904//EN"
 "http://www.w3.org/TR/2001/REC-SVG-20010904/DTD/svg10.dtd">
<svg version="1.0" xmlns="http://www.w3.org/2000/svg"
 width="440.000000pt" height="221.000000pt" viewBox="0 0 440.000000 221.000000"
 preserveAspectRatio="xMidYMid meet">

<g transform="translate(0.000000,221.000000) scale(0.100000,-0.100000)"
fill="#000000" stroke="none">
<path d="M0 1105 l0 -1105 1290 0 1290 0 0 215 c0 208 -1 215 -20 215 -18 0
-20 7 -20 75 0 70 1 75 21 75 20 0 21 3 15 68 -8 75 -8 93 0 240 l5 102 -995
0 -996 0 0 485 0 485 945 0 945 0 0 -300 0 -300 50 0 50 0 0 35 c0 28 -4 35
-20 35 -19 0 -20 7 -20 265 0 258 1 265 20 265 19 0 20 7 20 125 l0 125 -1290
0 -1290 0 0 -1105z m640 -305 c0 -25 4 -30 25 -30 21 0 25 5 25 30 0 25 4 30
25 30 25 0 25 -1 25 -80 0 -79 0 -80 -25 -80 -21 0 -25 5 -25 30 0 25 -4 30
-25 30 -21 0 -25 -5 -25 -30 0 -25 -4 -30 -25 -30 -24 0 -25 2 -25 73 0 79 3
87 32 87 13 0 18 -8 18 -30z m251 -50 c16 -41 29 -76 29 -77 0 -2 -13 -3 -30
-3 -16 0 -30 5 -30 10 0 6 -11 10 -25 10 -14 0 -25 -4 -25 -10 0 -5 -13 -10
-30 -10 -16 0 -30 1 -30 3 0 2 14 39 49 130 9 23 16 28 37 25 23 -3 31 -13 55
-78z m233 70 c20 -7 26 -17 26 -39 0 -16 -4 -33 -10 -36 -6 -4 -4 -17 5 -35
20 -39 19 -40 -13 -40 -21 0 -33 8 -47 33 l-20 32 -3 -32 c-3 -27 -7 -33 -28
-33 -23 0 -24 2 -24 80 l0 80 44 0 c25 0 56 -4 70 -10z m229 1 c31 -12 41 -38
24 -65 -12 -18 -11 -25 4 -50 l18 -30 3 75 3 74 65 0 c58 0 65 -2 65 -20 0
-16 -9 -21 -40 -26 l-40 -6 38 -2 c30 -1 37 -5 37 -21 0 -16 -7 -20 -35 -20
-19 0 -35 -4 -35 -10 0 -5 18 -10 40 -10 33 0 40 -3 40 -20 0 -19 -7 -20 -103
-20 -103 0 -104 0 -117 28 l-14 27 -4 -27 c-3 -23 -8 -28 -33 -28 l-29 0 0 80
0 80 44 0 c25 0 56 -4 69 -9z m319 -13 c18 -18 19 -22 6 -32 -13 -10 -13 -13
-2 -24 18 -17 18 -56 -1 -72 -21 -17 -89 -18 -109 -1 -24 20 -21 51 6 51 l22
0 -22 16 c-28 19 -28 49 0 68 31 22 74 20 100 -6z m168 -3 c0 -18 -5 -25 -20
-25 -18 0 -20 -7 -20 -55 0 -54 0 -55 -30 -55 -30 0 -30 1 -30 55 0 48 -3 55
-19 55 -23 0 -35 15 -27 35 4 11 23 15 76 15 68 0 70 -1 70 -25z m146 4 c19
-16 27 -69 15 -101 -13 -36 -69 -55 -108 -36 -59 28 -67 117 -13 146 27 14 84
10 106 -9z m165 2 c22 -18 23 -22 12 -51 -9 -23 -9 -38 -2 -52 13 -25 14 -25
43 53 21 56 27 64 52 67 28 3 31 -1 57 -71 15 -40 27 -77 27 -80 0 -4 -13 -7
-30 -7 -16 0 -30 5 -30 10 0 6 -11 10 -25 10 -14 0 -25 -4 -25 -10 0 -5 -25
-10 -55 -10 -52 0 -57 2 -75 33 l-20 32 0 -32 c0 -30 -3 -33 -30 -33 l-30 0 0
73 c0 41 3 77 7 80 15 15 101 7 124 -12z m319 -6 c0 -18 -5 -25 -20 -25 -18 0
-20 -7 -20 -55 0 -54 0 -55 -30 -55 -30 0 -30 1 -30 55 0 52 -1 55 -25 55 -20
0 -25 5 -25 25 0 24 2 25 75 25 73 0 75 -1 75 -25z m-1490 -60 c0 -73 -1 -75
-25 -75 -24 0 -25 2 -25 75 0 73 1 75 25 75 24 0 25 -2 25 -75z m1560 0 c0
-73 -1 -75 -25 -75 -24 0 -25 2 -25 75 0 73 1 75 25 75 24 0 25 -2 25 -75z
m-804 -186 c16 -17 16 -22 4 -29 -19 -12 -30 -12 -30 -1 0 15 -32 22 -46 10
-19 -15 -18 -63 1 -79 13 -10 19 -10 33 4 19 17 52 22 52 8 0 -25 -34 -52 -65
-52 -37 0 -62 19 -71 56 -8 30 1 68 22 88 22 23 77 20 100 -5z m154 1 c13 -13
20 -33 20 -60 0 -50 -27 -80 -72 -80 -39 0 -51 7 -67 37 -31 60 1 123 64 123
22 0 43 -8 55 -20z m80 -40 l0 -60 35 0 c28 0 35 -4 35 -20 0 -18 -7 -20 -55
-20 l-55 0 0 80 c0 73 2 80 20 80 18 0 20 -7 20 -60z m210 40 c13 -13 20 -33
20 -60 0 -51 -27 -80 -75 -80 -48 0 -75 29 -75 80 0 51 27 80 75 80 22 0 43
-8 55 -20z m103 -22 l14 -43 7 43 c7 38 10 42 37 42 l29 0 0 -80 c0 -73 -2
-80 -20 -80 -15 0 -20 7 -21 28 l-1 27 -7 -25 c-4 -15 -15 -26 -27 -28 -17 -2
-23 5 -31 40 l-11 43 -1 -42 c-1 -31 -5 -43 -16 -43 -12 0 -15 16 -15 80 0 78
1 80 24 80 20 0 27 -8 39 -42z m224 30 c14 -18 14 -119 1 -135 -6 -8 -33 -13
-64 -13 l-54 0 0 80 0 80 54 0 c31 0 58 -5 63 -12z m-1027 -68 c0 -7 -155 -10
-445 -10 -290 0 -445 3 -445 10 0 7 155 10 445 10 290 0 445 -3 445 -10z"/>
<path d="M827 750 c-3 -11 -1 -20 4 -20 5 0 9 9 9 20 0 11 -2 20 -4 20 -2 0
-6 -9 -9 -20z"/>
<path d="M1060 780 c0 -5 9 -10 21 -10 11 0 17 5 14 10 -3 6 -13 10 -21 10 -8
0 -14 -4 -14 -10z"/>
<path d="M1300 780 c0 -5 7 -10 16 -10 8 0 12 5 9 10 -3 6 -10 10 -16 10 -5 0
-9 -4 -9 -10z"/>
<path d="M1608 783 c7 -3 16 -2 19 1 4 3 -2 6 -13 5 -11 0 -14 -3 -6 -6z"/>
<path d="M1600 721 c0 -14 18 -23 31 -15 8 4 7 9 -2 15 -18 11 -29 11 -29 0z"/>
<path d="M1904 766 c-10 -26 0 -51 21 -51 16 0 20 7 20 30 0 33 -30 49 -41 21z"/>
<path d="M2080 780 c0 -5 7 -10 15 -10 8 0 15 5 15 10 0 6 -7 10 -15 10 -8 0
-15 -4 -15 -10z"/>
<path d="M2250 745 c0 -8 4 -15 10 -15 5 0 7 7 4 15 -4 8 -8 15 -10 15 -2 0
-4 -7 -4 -15z"/>
<path d="M1818 539 c-25 -14 -23 -65 3 -79 15 -9 24 -8 35 1 17 14 19 60 2 77
-14 14 -18 14 -40 1z"/>
<path d="M2108 539 c-23 -13 -24 -65 -1 -78 40 -22 74 44 41 77 -14 14 -18 14
-40 1z"/>
<path d="M2430 535 c0 -8 9 -15 19 -15 26 0 35 16 15 24 -25 10 -34 7 -34 -9z"/>
<path d="M2430 476 c0 -11 9 -16 26 -16 31 0 28 23 -4 28 -15 2 -22 -2 -22
-12z"/>
<path d="M750 1491 l0 -291 178 0 c98 0 195 5 217 11 136 38 204 174 175 348
-15 89 -53 150 -117 188 -48 28 -49 28 -250 31 l-203 3 0 -290z m348 116 c23
-24 27 -37 30 -102 7 -126 -25 -165 -133 -165 l-55 0 0 151 0 151 65 -4 c55
-3 70 -8 93 -31z"/>
<path d="M1460 1490 l0 -290 85 0 85 0 0 110 0 110 85 0 85 0 0 -110 0 -110
85 0 85 0 0 290 0 290 -85 0 -85 0 0 -100 0 -100 -85 0 -85 0 0 100 0 100 -85
0 -85 0 0 -290z"/>
<path d="M2130 1490 l0 -290 85 0 85 0 0 290 0 290 -85 0 -85 0 0 -290z"/>
</g>
</svg>
